<svg version="1.1" xmlns="http://www.w3.org/2000/svg" xmlns:xlink="http://www.w3.org/1999/xlink" width="1427" height="931"><defs/><g><g transform="translate(-70,-62) scale(1,1)"><rect fill="#C0C0C0" stroke="none" x="183" y="79" width="1311" height="911" opacity="0.2"/></g><g transform="translate(-70,-62) scale(1,1)"><rect fill="#ffffff" stroke="none" x="176" y="72" width="1311" height="911"/></g><g transform="translate(-70,-62) scale(1,1)"><path fill="none" stroke="#000000" d="M 176 72 L 1487 72 L 1487 983 L 176 983 L 176 72 Z Z" stroke-miterlimit="10"/></g><g transform="translate(-70,-62) scale(1,1)"><g><path fill="none" stroke="none"/><text fill="#000000" stroke="none" font-family="Arial" font-size="13px" font-style="normal" font-weight="bold" text-decoration="none" x="804.7763671875" y="90">AR-tistic</text></g></g><g transform="translate(-70,-62) scale(1,1)"><path fill="#ffffff" stroke="none" d="M 99.10581818181817 593.8399999999999 C 99.10581818181817 584.5395239679999 106.4457425733818 577 115.5 577 C 124.5542574266182 577 131.89418181818183 584.5395239679999 131.89418181818183 593.8399999999999 C 131.89418181818183 603.1404760319999 124.5542574266182 610.68 115.5 610.68 C 106.4457425733818 610.68 99.10581818181817 603.1404760319999 99.10581818181817 593.8399999999999 Z"/></g><g transform="translate(-70,-62) scale(1,1)"><path fill="none" stroke="#000000" d="M 99.10581818181817 593.8399999999999 C 99.10581818181817 584.5395239679999 106.4457425733818 577 115.5 577 C 124.5542574266182 577 131.89418181818183 584.5395239679999 131.89418181818183 593.8399999999999 C 131.89418181818183 603.1404760319999 124.5542574266182 610.68 115.5 610.68 C 106.4457425733818 610.68 99.10581818181817 603.1404760319999 99.10581818181817 593.8399999999999 Z" stroke-miterlimit="10"/></g><g transform="translate(-70,-62) scale(1,1)"><path fill="none" stroke="#000000" d="M 115.5 610.68 L 115.5 643.3199999999999" stroke-miterlimit="10"/></g><g transform="translate(-70,-62) scale(1,1)"><path fill="none" stroke="#000000" d="M 98.14145454545454 622.92 L 132.85854545454546 622.92" stroke-miterlimit="10"/></g><g transform="translate(-70,-62) scale(1,1)"><path fill="none" stroke="#000000" d="M 115.5 643.3199999999999 L 91.39090909090908 677" stroke-miterlimit="10"/></g><g transform="translate(-70,-62) scale(1,1)"><path fill="none" stroke="#000000" d="M 115.5 643.3199999999999 L 139.60909090909092 677" stroke-miterlimit="10"/></g><g transform="translate(-70,-62) scale(1,1)"><g><path fill="none" stroke="none"/><text fill="#000000" stroke="none" font-family="Arial" font-size="13px" font-style="normal" font-weight="bold" text-decoration="none" x="101.04638671875" y="696">User</text></g></g><g transform="translate(-70,-62) scale(1,1)"><path fill="#C0C0C0" stroke="none" d="M 351 426.5 C 351 402.4756112 408.083688 383 478.5 383 C 548.9163120000001 383 606 402.4756112 606 426.5 C 606 450.5243888 548.9163120000001 470 478.5 470 C 408.083688 470 351 450.5243888 351 426.5 Z" opacity="0.2"/></g><g transform="translate(-70,-62) scale(1,1)"><path fill="#ffffff" stroke="none" d="M 344 419.5 C 344 395.4756112 401.083688 376 471.5 376 C 541.9163120000001 376 599 395.4756112 599 419.5 C 599 443.5243888 541.9163120000001 463 471.5 463 C 401.083688 463 344 443.5243888 344 419.5 Z"/></g><g transform="translate(-70,-62) scale(1,1)"><path fill="none" stroke="#000000" d="M 344 419.5 C 344 395.4756112 401.083688 376 471.5 376 C 541.9163120000001 376 599 395.4756112 599 419.5 C 599 443.5243888 541.9163120000001 463 471.5 463 C 401.083688 463 344 443.5243888 344 419.5 Z" stroke-miterlimit="10"/></g><g transform="translate(-70,-62) scale(1,1)"><g><path fill="none" stroke="none"/><text fill="#000000" stroke="none" font-family="Arial" font-size="13px" font-style="normal" font-weight="bold" text-decoration="none" x="385.78125" y="425">Découvrir des oeuvres d'art</text></g></g><g transform="translate(-70,-62) scale(1,1)"><path fill="#C0C0C0" stroke="none" d="M 703 219 C 703 194.6994688 768.8141344000001 175 850 175 C 931.1858655999999 175 997 194.6994688 997 219 C 997 243.3005312 931.1858655999999 263 850 263 C 768.8141344000001 263 703 243.3005312 703 219 Z" opacity="0.2"/></g><g transform="translate(-70,-62) scale(1,1)"><path fill="#ffffff" stroke="none" d="M 696 212 C 696 187.6994688 761.8141344000001 168 843 168 C 924.1858655999999 168 990 187.6994688 990 212 C 990 236.3005312 924.1858655999999 256 843 256 C 761.8141344000001 256 696 236.3005312 696 212 Z"/></g><g transform="translate(-70,-62) scale(1,1)"><path fill="none" stroke="#000000" d="M 696 212 C 696 187.6994688 761.8141344000001 168 843 168 C 924.1858655999999 168 990 187.6994688 990 212 C 990 236.3005312 924.1858655999999 256 843 256 C 761.8141344000001 256 696 236.3005312 696 212 Z" stroke-miterlimit="10"/></g><g transform="translate(-70,-62) scale(1,1)"><g><path fill="none" stroke="none"/><text fill="#000000" stroke="none" font-family="Arial" font-size="13px" font-style="normal" font-weight="bold" text-decoration="none" x="743.554443359375" y="217.5">Découvrir l'histoire de lieux clés</text></g></g><g transform="translate(-70,-62) scale(1,1)"><path fill="#C0C0C0" stroke="none" d="M 351 710.5 C 351 684.266472 410.0984064 663 483 663 C 555.9015936 663 615 684.266472 615 710.5 C 615 736.733528 555.9015936 758 483 758 C 410.0984064 758 351 736.733528 351 710.5 Z" opacity="0.2"/></g><g transform="translate(-70,-62) scale(1,1)"><path fill="#ffffff" stroke="none" d="M 344 703.5 C 344 677.266472 403.0984064 656 476 656 C 548.9015936 656 608 677.266472 608 703.5 C 608 729.733528 548.9015936 751 476 751 C 403.0984064 751 344 729.733528 344 703.5 Z"/></g><g transform="translate(-70,-62) scale(1,1)"><path fill="none" stroke="#000000" d="M 344 703.5 C 344 677.266472 403.0984064 656 476 656 C 548.9015936 656 608 677.266472 608 703.5 C 608 729.733528 548.9015936 751 476 751 C 403.0984064 751 344 729.733528 344 703.5 Z" stroke-miterlimit="10"/></g><g transform="translate(-70,-62) scale(1,1)"><g><path fill="none" stroke="none"/><text fill="#000000" stroke="none" font-family="Arial" font-size="13px" font-style="normal" font-weight="bold" text-decoration="none" x="410.23828125" y="709">Partager ses oeuvres</text></g></g><g transform="translate(-70,-62) scale(1,1)"><path fill="#C0C0C0" stroke="none" d="M 671 563 C 671 543.1177472 721.1441024 527 783 527 C 844.8558976 527 895 543.1177472 895 563 C 895 582.8822528 844.8558976 599 783 599 C 721.1441024 599 671 582.8822528 671 563 Z" opacity="0.2"/></g><g transform="translate(-70,-62) scale(1,1)"><path fill="#ffffff" stroke="none" d="M 664 556 C 664 536.1177472 714.1441024 520 776 520 C 837.8558976 520 888 536.1177472 888 556 C 888 575.8822528 837.8558976 592 776 592 C 714.1441024 592 664 575.8822528 664 556 Z"/></g><g transform="translate(-70,-62) scale(1,1)"><path fill="none" stroke="#000000" d="M 664 556 C 664 536.1177472 714.1441024 520 776 520 C 837.8558976 520 888 536.1177472 888 556 C 888 575.8822528 837.8558976 592 776 592 C 714.1441024 592 664 575.8822528 664 556 Z" stroke-miterlimit="10"/></g><g transform="translate(-70,-62) scale(1,1)"><g><path fill="none" stroke="none"/><text fill="#000000" stroke="none" font-family="Arial" font-size="13px" font-style="normal" font-weight="bold" text-decoration="none" x="734.7275390625" y="561.5">S'authentifier</text></g></g><g transform="translate(-70,-62) scale(1,1)"><path fill="none" stroke="#000000" d="M 571 464 L 694 519" stroke-miterlimit="10" stroke-dasharray="3"/></g><g transform="translate(-70,-62) scale(1,1)"><path fill="none" stroke="#000000" d="M 683.0042460613452 518.6943935201014 L 694 519 L 686.4409242400293 511.00873141140755" stroke-miterlimit="10"/></g><g transform="translate(-70,-62) scale(1,1)"><g><path fill="none" stroke="none"/><text fill="#000000" stroke="none" font-family="Arial" font-size="13px" font-style="normal" font-weight="normal" text-decoration="none" x="616.5" y="468">«include»</text></g></g><g transform="translate(-70,-62) scale(1,1)"><path fill="none" stroke="#000000" d="M 574 655 L 700 593" stroke-miterlimit="10" stroke-dasharray="3"/></g><g transform="translate(-70,-62) scale(1,1)"><path fill="none" stroke="#000000" d="M 692.7399982162827 601.2639200202098 L 700 593 L 689.0229296218336 593.7098773927806" stroke-miterlimit="10"/></g><g transform="translate(-70,-62) scale(1,1)"><g><path fill="none" stroke="none"/><text fill="#000000" stroke="none" font-family="Arial" font-size="13px" font-style="normal" font-weight="normal" text-decoration="none" x="595.5" y="602">«include»</text></g></g><g transform="translate(-70,-62) scale(1,1)"><path fill="none" stroke="#000000" d="M 762 257 L 550 375" stroke-miterlimit="10" stroke-dasharray="3"/></g><g transform="translate(-70,-62) scale(1,1)"><path fill="none" stroke="#000000" d="M 556.8325537522746 366.37931503752293 L 550 375 L 560.9270898864954 373.7356002956145" stroke-miterlimit="10"/></g><g transform="translate(-70,-62) scale(1,1)"><g><path fill="none" stroke="none"/><text fill="#000000" stroke="none" font-family="Arial" font-size="13px" font-style="normal" font-weight="normal" text-decoration="none" x="643.5" y="347">«extend»</text></g></g><g transform="translate(-70,-62) scale(1,1)"><path fill="#C0C0C0" stroke="none" d="M 295 874.5 C 295 859.312168 337.532944 847 390 847 C 442.467056 847 485 859.312168 485 874.5 C 485 889.687832 442.467056 902 390 902 C 337.532944 902 295 889.687832 295 874.5 Z" opacity="0.2"/></g><g transform="translate(-70,-62) scale(1,1)"><path fill="#ffffff" stroke="none" d="M 288 867.5 C 288 852.312168 330.532944 840 383 840 C 435.467056 840 478 852.312168 478 867.5 C 478 882.687832 435.467056 895 383 895 C 330.532944 895 288 882.687832 288 867.5 Z"/></g><g transform="translate(-70,-62) scale(1,1)"><path fill="none" stroke="#000000" d="M 288 867.5 C 288 852.312168 330.532944 840 383 840 C 435.467056 840 478 852.312168 478 867.5 C 478 882.687832 435.467056 895 383 895 C 330.532944 895 288 882.687832 288 867.5 Z" stroke-miterlimit="10"/></g><g transform="translate(-70,-62) scale(1,1)"><g><path fill="none" stroke="none"/><text fill="#000000" stroke="none" font-family="Arial" font-size="13px" font-style="normal" font-weight="bold" text-decoration="none" x="355.5400390625" y="873">Dessiner</text></g></g><g transform="translate(-70,-62) scale(1,1)"><path fill="#C0C0C0" stroke="none" d="M 511 874.5 C 511 859.312168 553.532944 847 606 847 C 658.467056 847 701 859.312168 701 874.5 C 701 889.687832 658.467056 902 606 902 C 553.532944 902 511 889.687832 511 874.5 Z" opacity="0.2"/></g><g transform="translate(-70,-62) scale(1,1)"><path fill="#ffffff" stroke="none" d="M 504 867.5 C 504 852.312168 546.532944 840 599 840 C 651.467056 840 694 852.312168 694 867.5 C 694 882.687832 651.467056 895 599 895 C 546.532944 895 504 882.687832 504 867.5 Z"/></g><g transform="translate(-70,-62) scale(1,1)"><path fill="none" stroke="#000000" d="M 504 867.5 C 504 852.312168 546.532944 840 599 840 C 651.467056 840 694 852.312168 694 867.5 C 694 882.687832 651.467056 895 599 895 C 546.532944 895 504 882.687832 504 867.5 Z" stroke-miterlimit="10"/></g><g transform="translate(-70,-62) scale(1,1)"><g><path fill="none" stroke="none"/><text fill="#000000" stroke="none" font-family="Arial" font-size="13px" font-style="normal" font-weight="bold" text-decoration="none" x="536.15185546875" y="873">importer une oeuvre</text></g></g><g transform="translate(-70,-62) scale(1,1)"><path fill="none" stroke="#000000" d="M 399 839 L 448 752" stroke-miterlimit="10"/></g><g transform="translate(-70,-62) scale(1,1)"><path fill="#FFFFFF" stroke="none" d="M 445.3611783293544 773.841168013422 L 448 752 L 430.69003329101906 765.57810931367"/></g><g transform="translate(-70,-62) scale(1,1)"><path fill="none" stroke="#000000" d="M 445.3611783293544 773.841168013422 L 448 752 L 430.69003329101906 765.57810931367 L 445.3611783293544 773.841168013422" stroke-miterlimit="10"/></g><g transform="translate(-70,-62) scale(1,1)"><path fill="none" stroke="#000000" d="M 578 839 L 513 752" stroke-miterlimit="10"/></g><g transform="translate(-70,-62) scale(1,1)"><path fill="#FFFFFF" stroke="none" d="M 531.9097637069962 763.2437020836364 L 513 752 L 518.4207241588716 773.3217201368329"/></g><g transform="translate(-70,-62) scale(1,1)"><path fill="none" stroke="#000000" d="M 531.9097637069962 763.2437020836364 L 513 752 L 518.4207241588716 773.3217201368329 L 531.9097637069962 763.2437020836364" stroke-miterlimit="10"/></g><g transform="translate(-70,-62) scale(1,1)"><path fill="none" stroke="#000000" d="M 152 616 L 398 464" stroke-miterlimit="10"/></g><g transform="translate(-70,-62) scale(1,1)"><path fill="none" stroke="#000000" d="M 152 646 L 343 679" stroke-miterlimit="10"/></g><g transform="translate(-70,-62) scale(1,1)"><path fill="#C0C0C0" stroke="none" d="M 1143 310.5 C 1143 293.1030288 1180.3842192 279 1226.5 279 C 1272.6157808 279 1310 293.1030288 1310 310.5 C 1310 327.8969712 1272.6157808 342 1226.5 342 C 1180.3842192 342 1143 327.8969712 1143 310.5 Z" opacity="0.2"/></g><g transform="translate(-70,-62) scale(1,1)"><path fill="#ffffff" stroke="none" d="M 1136 303.5 C 1136 286.1030288 1173.3842192 272 1219.5 272 C 1265.6157808 272 1303 286.1030288 1303 303.5 C 1303 320.8969712 1265.6157808 335 1219.5 335 C 1173.3842192 335 1136 320.8969712 1136 303.5 Z"/></g><g transform="translate(-70,-62) scale(1,1)"><path fill="none" stroke="#000000" d="M 1136 303.5 C 1136 286.1030288 1173.3842192 272 1219.5 272 C 1265.6157808 272 1303 286.1030288 1303 303.5 C 1303 320.8969712 1265.6157808 335 1219.5 335 C 1173.3842192 335 1136 320.8969712 1136 303.5 Z" stroke-miterlimit="10"/></g><g transform="translate(-70,-62) scale(1,1)"><g><path fill="none" stroke="none"/><text fill="#000000" stroke="none" font-family="Arial" font-size="13px" font-style="normal" font-weight="bold" text-decoration="none" x="1164.9482421875" y="309">Noter les oeuvres</text></g></g><g transform="translate(-70,-62) scale(1,1)"><path fill="none" stroke="#000000" d="M 887 360 L 600 401" stroke-miterlimit="10" stroke-dasharray="3"/></g><g transform="translate(-70,-62) scale(1,1)"><path fill="none" stroke="#000000" d="M 609.4652191193873 395.39557076751026 L 600 401 L 610.6558505397089 403.7299907097617" stroke-miterlimit="10"/></g><g transform="translate(-70,-62) scale(1,1)"><g><path fill="none" stroke="none"/><text fill="#000000" stroke="none" font-family="Arial" font-size="13px" font-style="normal" font-weight="normal" text-decoration="none" x="720.5" y="414">«extend»</text></g></g><g transform="translate(-70,-62) scale(1,1)"><path fill="#C0C0C0" stroke="none" d="M 1167 555 C 1167 535.1177472 1215.129384 519 1274.5 519 C 1333.870616 519 1382 535.1177472 1382 555 C 1382 574.8822528 1333.870616 591 1274.5 591 C 1215.129384 591 1167 574.8822528 1167 555 Z" opacity="0.2"/></g><g transform="translate(-70,-62) scale(1,1)"><path fill="#ffffff" stroke="none" d="M 1160 548 C 1160 528.1177472 1208.129384 512 1267.5 512 C 1326.870616 512 1375 528.1177472 1375 548 C 1375 567.8822528 1326.870616 584 1267.5 584 C 1208.129384 584 1160 567.8822528 1160 548 Z"/></g><g transform="translate(-70,-62) scale(1,1)"><path fill="none" stroke="#000000" d="M 1160 548 C 1160 528.1177472 1208.129384 512 1267.5 512 C 1326.870616 512 1375 528.1177472 1375 548 C 1375 567.8822528 1326.870616 584 1267.5 584 C 1208.129384 584 1160 567.8822528 1160 548 Z" stroke-miterlimit="10"/></g><g transform="translate(-70,-62) scale(1,1)"><g><path fill="none" stroke="none"/><text fill="#000000" stroke="none" font-family="Arial" font-size="13px" font-style="normal" font-weight="bold" text-decoration="none" x="1235.9775390625" y="553.5">S'abonner</text></g></g><g transform="translate(-70,-62) scale(1,1)"><path fill="#C0C0C0" stroke="none" d="M 1167 699 C 1167 679.1177472 1215.129384 663 1274.5 663 C 1333.870616 663 1382 679.1177472 1382 699 C 1382 718.8822528 1333.870616 735 1274.5 735 C 1215.129384 735 1167 718.8822528 1167 699 Z" opacity="0.2"/></g><g transform="translate(-70,-62) scale(1,1)"><path fill="#ffffff" stroke="none" d="M 1160 692 C 1160 672.1177472 1208.129384 656 1267.5 656 C 1326.870616 656 1375 672.1177472 1375 692 C 1375 711.8822528 1326.870616 728 1267.5 728 C 1208.129384 728 1160 711.8822528 1160 692 Z"/></g><g transform="translate(-70,-62) scale(1,1)"><path fill="none" stroke="#000000" d="M 1160 692 C 1160 672.1177472 1208.129384 656 1267.5 656 C 1326.870616 656 1375 672.1177472 1375 692 C 1375 711.8822528 1326.870616 728 1267.5 728 C 1208.129384 728 1160 711.8822528 1160 692 Z" stroke-miterlimit="10"/></g><g transform="translate(-70,-62) scale(1,1)"><g><path fill="none" stroke="none"/><text fill="#000000" stroke="none" font-family="Arial" font-size="13px" font-style="normal" font-weight="bold" text-decoration="none" x="1244.746826171875" y="697.5">Chatter</text></g></g><g transform="translate(-70,-62) scale(1,1)"><path fill="#C0C0C0" stroke="none" d="M 895 354.5 C 895 334.8938896 935.5182256 319 985.5 319 C 1035.4817744 319 1076 334.8938896 1076 354.5 C 1076 374.1061104 1035.4817744 390 985.5 390 C 935.5182256 390 895 374.1061104 895 354.5 Z" opacity="0.2"/></g><g transform="translate(-70,-62) scale(1,1)"><path fill="#ffffff" stroke="none" d="M 888 347.5 C 888 327.8938896 928.5182256 312 978.5 312 C 1028.4817744 312 1069 327.8938896 1069 347.5 C 1069 367.1061104 1028.4817744 383 978.5 383 C 928.5182256 383 888 367.1061104 888 347.5 Z"/></g><g transform="translate(-70,-62) scale(1,1)"><path fill="none" stroke="#000000" d="M 888 347.5 C 888 327.8938896 928.5182256 312 978.5 312 C 1028.4817744 312 1069 327.8938896 1069 347.5 C 1069 367.1061104 1028.4817744 383 978.5 383 C 928.5182256 383 888 367.1061104 888 347.5 Z" stroke-miterlimit="10"/></g><g transform="translate(-70,-62) scale(1,1)"><g><path fill="none" stroke="none"/><text fill="#000000" stroke="none" font-family="Arial" font-size="13px" font-style="normal" font-weight="bold" text-decoration="none" x="918.924072265625" y="353">Donner son opnion</text></g></g><g transform="translate(-70,-62) scale(1,1)"><path fill="none" stroke="#000000" d="M 1135 318 L 1070 330" stroke-miterlimit="10"/></g><g transform="translate(-70,-62) scale(1,1)"><path fill="#FFFFFF" stroke="none" d="M 1088.4591320434529 318.0308544915533 L 1070 330 L 1091.5160413967747 334.5891134887123"/></g><g transform="translate(-70,-62) scale(1,1)"><path fill="none" stroke="#000000" d="M 1088.4591320434529 318.0308544915533 L 1070 330 L 1091.5160413967747 334.5891134887123 L 1088.4591320434529 318.0308544915533" stroke-miterlimit="10"/></g><g transform="translate(-70,-62) scale(1,1)"><path fill="#C0C0C0" stroke="none" d="M 1127 402.5 C 1127 387.312168 1175.5770992 375 1235.5 375 C 1295.4229008 375 1344 387.312168 1344 402.5 C 1344 417.687832 1295.4229008 430 1235.5 430 C 1175.5770992 430 1127 417.687832 1127 402.5 Z" opacity="0.2"/></g><g transform="translate(-70,-62) scale(1,1)"><path fill="#ffffff" stroke="none" d="M 1120 395.5 C 1120 380.312168 1168.5770992 368 1228.5 368 C 1288.4229008 368 1337 380.312168 1337 395.5 C 1337 410.687832 1288.4229008 423 1228.5 423 C 1168.5770992 423 1120 410.687832 1120 395.5 Z"/></g><g transform="translate(-70,-62) scale(1,1)"><path fill="none" stroke="#000000" d="M 1120 395.5 C 1120 380.312168 1168.5770992 368 1228.5 368 C 1288.4229008 368 1337 380.312168 1337 395.5 C 1337 410.687832 1288.4229008 423 1228.5 423 C 1168.5770992 423 1120 410.687832 1120 395.5 Z" stroke-miterlimit="10"/></g><g transform="translate(-70,-62) scale(1,1)"><g><path fill="none" stroke="none"/><text fill="#000000" stroke="none" font-family="Arial" font-size="13px" font-style="normal" font-weight="bold" text-decoration="none" x="1156.25732421875" y="401">Poster un commentaire</text></g></g><g transform="translate(-70,-62) scale(1,1)"><path fill="none" stroke="#000000" d="M 1119 374 L 1070 365" stroke-miterlimit="10"/></g><g transform="translate(-70,-62) scale(1,1)"><path fill="#FFFFFF" stroke="none" d="M 1091.5118516800544 360.3912868069987 L 1070 365 L 1088.4700285501608 376.9523238475306"/></g><g transform="translate(-70,-62) scale(1,1)"><path fill="none" stroke="#000000" d="M 1091.5118516800544 360.3912868069987 L 1070 365 L 1088.4700285501608 376.9523238475306 L 1091.5118516800544 360.3912868069987" stroke-miterlimit="10"/></g><g transform="translate(-70,-62) scale(1,1)"><path fill="none" stroke="#000000" d="M 935 494 L 600 440" stroke-miterlimit="10" stroke-dasharray="3"/></g><g transform="translate(-70,-62) scale(1,1)"><path fill="none" stroke="#000000" d="M 610.703064088553 437.4614139533341 L 600 440 L 609.3632606047131 445.77315778826704" stroke-miterlimit="10"/></g><g transform="translate(-70,-62) scale(1,1)"><g><path fill="none" stroke="none"/><text fill="#000000" stroke="none" font-family="Arial" font-size="13px" font-style="normal" font-weight="normal" text-decoration="none" x="735.5" y="501">«extend»</text></g></g><g transform="translate(-70,-62) scale(1,1)"><path fill="none" stroke="#000000" d="M 1267 655 L 1267 585" stroke-miterlimit="10" stroke-dasharray="3"/></g><g transform="translate(-70,-62) scale(1,1)"><path fill="none" stroke="#000000" d="M 1271.2095177560159 595.1626748576241 L 1267 585 L 1262.7904822439841 595.1626748576241" stroke-miterlimit="10"/></g><g transform="translate(-70,-62) scale(1,1)"><g><path fill="none" stroke="none"/><text fill="#000000" stroke="none" font-family="Arial" font-size="13px" font-style="normal" font-weight="normal" text-decoration="none" x="1210.5" y="624">«extend»</text></g></g><g transform="translate(-70,-62) scale(1,1)"><path fill="#C0C0C0" stroke="none" d="M 943 515 C 943 495.1177472 980.6080768 479 1027 479 C 1073.3919232 479 1111 495.1177472 1111 515 C 1111 534.8822528 1073.3919232 551 1027 551 C 980.6080768 551 943 534.8822528 943 515 Z" opacity="0.2"/></g><g transform="translate(-70,-62) scale(1,1)"><path fill="#ffffff" stroke="none" d="M 936 508 C 936 488.1177472 973.6080768 472 1020 472 C 1066.3919232 472 1104 488.1177472 1104 508 C 1104 527.8822528 1066.3919232 544 1020 544 C 973.6080768 544 936 527.8822528 936 508 Z"/></g><g transform="translate(-70,-62) scale(1,1)"><path fill="none" stroke="#000000" d="M 936 508 C 936 488.1177472 973.6080768 472 1020 472 C 1066.3919232 472 1104 488.1177472 1104 508 C 1104 527.8822528 1066.3919232 544 1020 544 C 973.6080768 544 936 527.8822528 936 508 Z" stroke-miterlimit="10"/></g><g transform="translate(-70,-62) scale(1,1)"><g><path fill="none" stroke="none"/><text fill="#000000" stroke="none" font-family="Arial" font-size="13px" font-style="normal" font-weight="bold" text-decoration="none" x="967.162109375" y="513.5">Découvir l'auteur</text></g></g><g transform="translate(-70,-62) scale(1,1)"><path fill="none" stroke="#000000" d="M 1159 531 L 1105 522" stroke-miterlimit="10" stroke-dasharray="3"/></g><g transform="translate(-70,-62) scale(1,1)"><path fill="none" stroke="#000000" d="M 1115.7164411855751 519.5184907181093 L 1105 522 L 1114.3323602733092 527.8229761917047" stroke-miterlimit="10"/></g><g transform="translate(-70,-62) scale(1,1)"><g><path fill="none" stroke="none"/><text fill="#000000" stroke="none" font-family="Arial" font-size="13px" font-style="normal" font-weight="normal" text-decoration="none" x="1100.5" y="560">«extend»</text></g></g></g></svg>